<svg width="32" height="32" viewBox="0 0 256 256" fill="none" xmlns="http://www.w3.org/2000/svg">
<rect width="256" height="256" fill="#39AA5D"/>
<path d="M77.0976 91.6535C73.7457 94.8655 71.3449 98.7412 69.87 103.289H60.1642V83.833H38.7871V104.834H54.2192V180.147H73.8678V122.152C73.8678 115.195 76.146 109.643 80.6938 105.497C85.3723 101.351 90.994 99.2738 97.5494 99.2738C104.777 99.2738 110.058 101.15 113.401 104.895C116.744 108.64 118.42 113.589 118.42 119.743V180.147H138.287V122.152C138.287 115.195 140.565 109.643 145.113 105.497C149.792 101.211 155.413 99.0728 161.968 99.0728C169.196 99.0728 174.407 100.95 177.619 104.694C180.963 108.439 182.639 113.458 182.639 119.743V180.129H202.506V116.321C202.506 108.832 201.03 102.538 198.089 97.4579C195.278 92.2468 191.271 88.3626 186.052 85.8223C180.832 83.1426 174.678 81.8071 167.59 81.8071C162.239 81.8071 157.089 82.7414 152.14 84.618C147.19 86.3635 142.844 89.0348 139.099 92.6484C137.206 94.541 135.608 96.6704 134.304 99.0381C133.417 97.2147 132.339 95.4867 131.068 93.8532C128.258 90.1086 124.513 87.1667 119.834 85.028C115.155 82.8894 109.604 81.8161 103.18 81.8161C98.099 81.8161 93.2806 82.6888 88.7332 84.4258C84.3248 86.0318 80.4407 88.441 77.0976 91.6535Z" fill="white"/>
</svg>
